<svg id="_1dff4cb4-53bd-4ffc-acc1-5e8a2ceb72de" data-name="1dff4cb4-53bd-4ffc-acc1-5e8a2ceb72de" xmlns="http://www.w3.org/2000/svg" xmlns:xlink="http://www.w3.org/1999/xlink" viewBox="0 0 769.26 658.47"><defs><style>.cls-1{opacity:0.7;}.cls-2{fill:url(#linear-gradient);}.cls-3{fill:#e0e0e0;}.cls-4{opacity:0.1;isolation:isolate;}.cls-5{fill:#55198b;}.cls-6{fill:#fdb797;}.cls-7{fill:#333;}.cls-8{fill:url(#linear-gradient-2);}.cls-9{fill:#6762a6;}.cls-10{fill:#fff;}.cls-11{fill:url(#linear-gradient-3);}</style><linearGradient id="linear-gradient" x1="477.04" y1="-119.22" x2="477.04" y2="539.25" gradientTransform="matrix(1, 0, 0, -1, -167.6, 539.22)" gradientUnits="userSpaceOnUse"><stop offset="0" stop-color="gray" stop-opacity="0.25"/><stop offset="0.54" stop-color="gray" stop-opacity="0.12"/><stop offset="1" stop-color="gray" stop-opacity="0.1"/></linearGradient><linearGradient id="linear-gradient-2" x1="309.42" y1="37" x2="309.42" y2="199" gradientTransform="matrix(1, 0, 0, -1, 0, 660.03)" xlink:href="#linear-gradient"/><linearGradient id="linear-gradient-3" x1="677.87" y1="297.84" x2="677.87" y2="459.84" gradientTransform="matrix(1, 0, 0, -1, 0, 660.03)" xlink:href="#linear-gradient"/></defs><title>cloud_infrastructure</title><g class="cls-1"><path class="cls-2" d="M338.8,353.16l-.59-.14v-22.6A120.23,120.23,0,0,0,428,233.33h.29c5.77,0,10.44-8.77,10.44-19.58,0-6.71-1.8-12.62-4.54-16.15q.62-6.2.63-12.57A125,125,0,0,0,396.2,94.54a80.54,80.54,0,0,0-8.87-23.81c-8.9-15.68-23.71-32-17.67-49l-39.1,4L330.2,0C318,2.16,312.89,16.3,305.65,26.37,288.24,50.59,253.3,54,230.19,72.82c-7.85,6.41-25.51,25.9-22.19,38.68a125.37,125.37,0,0,0-23.21,86.1c-2.74,3.53-4.54,9.44-4.54,16.15,0,10.82,4.68,19.58,10.44,19.58H191a120.23,120.23,0,0,0,89.79,97.09V353l-.59.14c-13.46-1.57-149.3-11.94-119.51,211.46L178.94,632l4.07-.16a28.72,28.72,0,0,0,56.39,5.11c25.87-.09,55.09-.17,70-.17s44.18.09,70,.17a28.72,28.72,0,0,0,56.44-5.11l4.07.16,18.27-67.36C488.11,341.22,352.26,351.59,338.8,353.16Z" transform="translate(0 0.03)"/></g><rect class="cls-3" y="625.19" width="645.61" height="21.88"/><rect class="cls-3" x="27.36" y="647.08" width="590.89" height="8.95"/><rect class="cls-4" x="27.36" y="647.08" width="590.89" height="2.98"/><path class="cls-4" d="M193.4,626.83s86.63-.34,116.09-.34,116.09.34,116.09.34V614.22H193.4Z" transform="translate(0 0.03)"/><path class="cls-5" d="M425.59,624.3S339,624,309.5,624s-116.09.34-116.09.34V465A116.09,116.09,0,0,1,309.49,348.87h0a116.09,116.09,0,0,1,116.1,116.08h0Z" transform="translate(0 0.03)"/><path class="cls-6" d="M298.5,290.83h22a16.76,16.76,0,0,1,16.76,16.76h0v46.33a27.76,27.76,0,0,1-27.76,27.76h0a27.76,27.76,0,0,1-27.76-27.76h0V307.59a16.76,16.76,0,0,1,16.76-16.76Z" transform="translate(0 0.03)"/><path class="cls-4" d="M281.73,332.89a116.17,116.17,0,0,0,55.52,0V293.35H281.73Z" transform="translate(0 0.03)"/><circle class="cls-7" cx="309.5" cy="189.91" r="121.14"/><circle class="cls-6" cx="309.5" cy="217.67" r="116.09"/><path class="cls-7" d="M232.84,81.41c22.33-18.23,56.11-21.48,72.94-44.9,7-9.73,11.93-23.4,23.73-25.52l.35,24.9L367.65,32c-5.83,16.42,8.48,32.23,17.08,47.38a77.93,77.93,0,0,1,10.09,36.68c-13.12,7.88-29.39-.72-44-5.31-14.2-4.46-29.29-4.92-44.17-5.34-7.63-.22-15.35-.42-22.8,1.25-6.53,1.47-12.64,4.34-18.82,6.93-10,4.21-41.79,20.09-51.13,9.85C203.32,111.84,224.22,88.45,232.84,81.41Z" transform="translate(0 0.03)"/><path class="cls-4" d="M239.15,159.42c6.16,3.73,13.4,5.2,20.53,6.18a180.86,180.86,0,0,0,88.11-9.9c4.6,11.66,15.83,19.67,27.77,23.48s24.69,4,37.22,4.15c2.76,0,5.72,0,8-1.53,5.58-3.77,2.88-12.4-.37-18.3l-16.17-29.28c-4.78-8.66-9.7-17.5-17.1-24.06-9.28-8.21-21.6-12.06-33.75-14.49a190.34,190.34,0,0,0-86.64,2.89C236.53,106.69,197.71,134.34,239.15,159.42Z" transform="translate(0 0.03)"/><path class="cls-7" d="M239.15,156.9c6.16,3.73,13.4,5.2,20.53,6.18a180.86,180.86,0,0,0,88.11-9.9c4.6,11.66,15.83,19.67,27.77,23.48s24.69,4,37.22,4.15c2.76,0,5.72,0,8-1.53,5.58-3.77,2.88-12.4-.37-18.3l-16.17-29.32c-4.78-8.66-9.7-17.5-17.1-24.06-9.28-8.21-21.6-12.06-33.75-14.49A190.34,190.34,0,0,0,266.75,96C236.53,104.16,197.71,131.81,239.15,156.9Z" transform="translate(0 0.03)"/><ellipse class="cls-6" cx="424.33" cy="217.67" rx="10.1" ry="18.93"/><ellipse class="cls-6" cx="194.67" cy="217.67" rx="10.1" ry="18.93"/><path class="cls-5" d="M336.79,352.49s146.84-22.87,116.56,204.27l-17.66,65.11-50.48-2S418,544.16,397.83,493.68,336.79,352.49,336.79,352.49Z" transform="translate(0 0.03)"/><path class="cls-5" d="M282.2,352.49S135.4,329.62,165.64,556.76l17.66,65.11,50.48-2S201,544.16,221.16,493.68,282.2,352.49,282.2,352.49Z" transform="translate(0 0.03)"/><path class="cls-4" d="M218.64,452.58s-10.1,78,7.57,100.71" transform="translate(0 0.03)"/><path class="cls-4" d="M400.35,454.58s10.1,76-7.57,98.71" transform="translate(0 0.03)"/><circle class="cls-6" cx="404.08" cy="619.71" r="27.76"/><circle class="cls-6" cx="214.91" cy="619.71" r="27.76"/><g class="cls-1"><rect class="cls-8" x="218.04" y="461.03" width="182.77" height="162" rx="21.34" ry="21.34"/></g><rect class="cls-3" x="221.42" y="464.03" width="176" height="156" rx="21.34" ry="21.34"/><path class="cls-9" d="M275.85,608.93V597.22a1.16,1.16,0,0,0-1.13-1.19h-.19a12.53,12.53,0,0,0-4.83,1.07V608.9h-3.3V587.22h3.29v7.16a15.7,15.7,0,0,1,5.29-1.07c3,0,4.11,1.84,4.11,4.36v11.25h-3.24Zm9.41-7.08c.11,3.92.88,4.69,3.29,4.69a17,17,0,0,0,5.68-1.26l.55,2.47a15.37,15.37,0,0,1-6.44,1.56c-5.49,0-6.34-3-6.34-7.82a26.07,26.07,0,0,1,.82-7.21,18.82,18.82,0,0,1,6.61-1c4.5,0,5.87,2.5,5.87,6.86v1.67h-10Zm4.17-5.79a22.05,22.05,0,0,0-3.84.27,17.45,17.45,0,0,0-.36,3.24h6.86C292.09,597.29,291.68,596.06,289.43,596.06Zm12,1.07v11.79h-3.29V595.65a19,19,0,0,1,7.63-2.11v2.74a14,14,0,0,0-4.33.85Zm13,12.18c-4.91,0-7.13-2.41-7.13-7.93,0-5.84,2.93-8.06,7.13-8.06,4.91,0,7.13,2.41,7.13,7.93C321.56,607.09,318.62,609.31,314.43,609.31Zm0-13.25c-2.52,0-3.92,1.45-3.92,5.32,0,4.22,1.18,5.16,3.92,5.16,2.52,0,3.92-1.43,3.92-5.29,0-4.22-1.18-5.18-3.92-5.18Zm23,12.86h-3.87a21.44,21.44,0,0,0-4.11-7h-1.73v7H324.5v-21.7h3.29v12.45h1.54a20,20,0,0,0,3.87-6h3.7a25.74,25.74,0,0,1-4.69,6.64,46.5,46.5,0,0,1,5.29,8.58Zm6.17.38c-3,0-4.11-1.84-4.11-4.36V593.71h3.26v11.66a1.16,1.16,0,0,0,1.13,1.19h.19a13.31,13.31,0,0,0,5-1.07V593.71h3.33v13.22a17.45,17.45,0,0,1-8.73,2.38Zm-1.45-27.61H276.58a10.16,10.16,0,0,1-10.18-10.14h0V485.29a10.16,10.16,0,0,1,10.16-10.16h65.63a10.17,10.17,0,0,1,10.21,10.13v86.28a10.16,10.16,0,0,1-10.16,10.16h-.09Z" transform="translate(0 0.03)"/><path class="cls-10" d="M320.29,567V524.72s2.75-10.13-33.91,4.14c-.07.18-.07-39.14-.07-39.14l12-.07v25.19s33.54-13.21,33.54,10V567H320.29Zm6.83-62.15H314.4c4.57-5.59,8.71-15.17,8.71-15.17h13.14S334,496,327.1,504.89ZM286.53,567v-24.1l12,12Z" transform="translate(0 0.03)"/><g class="cls-1"><rect class="cls-11" x="586.49" y="200.19" width="182.77" height="162" rx="21.34" ry="21.34"/></g><path class="cls-3" d="M614,208.41H735.55c10.74,0,19.45,8.28,19.45,18.48V325c0,10.21-8.71,18.48-19.45,18.48H614c-10.74,0-19.45-8.28-19.45-18.48V226.89C594.55,216.69,603.26,208.41,614,208.41Z" transform="translate(0 0.03)"/><path d="M645.64,305.71H605.27c-1.08,0-1.08,0-.56-1.57l19.74-59.61c.13-.4.28-.79.48-1.36Z" transform="translate(0 0.03)"/><path d="M673.44,285.72c1.15,7.33,4.41,10.38,7.3,7a4.12,4.12,0,0,0,1-1.53c.56-1.71,1.05-1.31,1.66-.23s1.39,2.24,2.1,3.28c.47.69.66,1.13.15,2.45-2.73,7.1-6,8.84-9.6,7.07-3-1.47-5.34-5.64-6.57-13.27-2.24-14,.51-31.1,7.57-32.46,3-.59,5.79,1.53,7.89,7.8,1.74,5.19,2.2,11.51,2,18.31,0,1.47-.33,1.58-.78,1.58-3.94,0-7.88,0-11.82,0Z" transform="translate(0 0.03)"/><path d="M737.86,295.25c-2.46,8-6.88,11.22-10.82,8.07-2.94-2.35-5.14-6.95-6.12-15-1.64-13.34,1.18-26.66,6.28-29.61,3.48-2,6.71-.53,9.3,6.52,1.89,5.14,2.42,11.63,2.21,18.69,0,1.51-.26,1.8-.77,1.79-3.94-.05-7.88,0-11.82,0-.28,0-.67-.4-.81.23a5.06,5.06,0,0,0,.32,2.23c1.59,6.66,5.87,8,8.16,2.44.33-.8.53-.94.92-.3C735.73,292,736.79,293.59,737.86,295.25Z" transform="translate(0 0.03)"/><path d="M659,282.42c2.68-12.44,5.33-24.64,7.94-36.9.29-1.37.6-1.81,1.17-1.76,1.34.11,2.68,0,4.17,0l-13.31,61.92L645.64,243.8c1.65,0,3.19,0,4.72,0,.43,0,.48,1,.63,1.63q3.82,17.7,7.62,35.42C658.72,281.31,658.83,281.77,659,282.42Z" transform="translate(0 0.03)"/><path d="M702,281.28c-.13-12.57,3.23-22.14,8.25-23.2,3.35-.71,6.25,1.86,8.4,9.28.37,1.26.37,1.82-.21,2.56a36.25,36.25,0,0,0-2.51,3.89c-.41.71-.6.66-.9-.5-1.09-4.19-3.16-5.94-5.19-4.6s-3.17,4.89-3.45,10c-.37,6.67.65,12.15,2.71,14.43,1.85,2,4.68,1.31,6-4.36.22-.94.4-.79.68-.34.92,1.48,1.84,3,2.78,4.33a2.07,2.07,0,0,1,.15,2c-1.61,5.9-3.81,8.82-6.47,9.46s-5.07-.54-7.18-5C703.08,294.91,702.1,289.12,702,281.28Z" transform="translate(0 0.03)"/><path d="M694.23,268.45c1-6.24,3.74-9.07,6-9.2.32,0,.34.34.34,1,0,3.79,0,7.59,0,11.43-1.89-.88-3.6-.53-5,3.22a25.42,25.42,0,0,0-1.31,8.75c0,5.85,0,11.7,0,17.55,0,1.73-.19,2.08-.78,2a16.41,16.41,0,0,0-3.07,0c-.38,0-.48-.28-.48-1.3q0-20.62,0-41.23c0-1,.09-1.51.52-1.48a21.84,21.84,0,0,0,3.31,0c.46,0,.5.53.49,1.51C694.22,263.25,694.23,265.85,694.23,268.45Z" transform="translate(0 0.03)"/><path d="M746,273.51c0,9.24,0,18.48,0,27.72,0,1.6-.14,2-.73,1.95a15.53,15.53,0,0,0-3.07,0c-.39,0-.54-.19-.54-1.36q0-28.36,0-56.71c0-1,.1-1.33.48-1.31a16.41,16.41,0,0,0,3.07,0c.59-.07.79.29.79,2C746,255,746,264.27,746,273.51Z" transform="translate(0 0.03)"/><path class="cls-3" d="M682.37,276.65c-2.89,0-5.72,0-8.54,0-.48,0-.43-.52-.28-1.42.6-3.59,1.62-5.77,3-6.62C679,267.2,681.65,269.66,682.37,276.65Z" transform="translate(0 0.03)"/><path class="cls-3" d="M729.69,276.65c-1.34,0-2.68-.06-4,0-.53,0-.56-.44-.37-1.55.75-4.31,2.07-6.37,3.77-6.83,2.15-.57,4,1.92,4.82,6.36.24,1.34.33,2.12-.44,2A32.06,32.06,0,0,0,729.69,276.65Z" transform="translate(0 0.03)"/></svg>